HIERARCHY
ROOT Hips
{
	OFFSET 0.000000 88.474243 0.000000
	CHANNELS 6 Xposition Yposition Zposition Zrotation Yrotation Xrotation 
	JOINT Hips_Spine
	{
		OFFSET 0.000000 0.000000 0.000000
		CHANNELS 3 Zrotation Yrotation Xrotation
		JOINT Spine
		{
			OFFSET 0.005100 8.711998 -0.691000
			CHANNELS 3 Zrotation Yrotation Xrotation
			JOINT Spine1
			{
				OFFSET -0.009200 8.660301 -1.275000
				CHANNELS 3 Zrotation Yrotation Xrotation
				JOINT Spine2
				{
					OFFSET 0.006300 9.852501 -1.857000
					CHANNELS 3 Zrotation Yrotation Xrotation
					JOINT Spine2_Neck
					{
						OFFSET 0.000000 0.000000 0.000000
						CHANNELS 3 Zrotation Yrotation Xrotation
						JOINT Neck
						{
							OFFSET 0.016300 11.420799 -0.263300
							CHANNELS 3 Zrotation Yrotation Xrotation
							End Site #name: Head
							{
								OFFSET -0.019200 9.262405 2.362500
							}
						}
					}
					JOINT Spine2_LeftShoulder
					{
						OFFSET 0.000000 0.000000 0.000000
						CHANNELS 3 Zrotation Yrotation Xrotation
						JOINT LeftShoulder
						{
							OFFSET 5.616900 6.732201 -0.345700
							CHANNELS 3 Zrotation Yrotation Xrotation
							JOINT LeftArm
							{
								OFFSET 10.664888 -0.183372 -2.440700
								CHANNELS 3 Zrotation Yrotation Xrotation
								JOINT LeftForeArm
								{
									OFFSET 27.459126 0.000000 0.000000
									CHANNELS 3 Zrotation Yrotation Xrotation
									End Site #name: LeftHand
									{
										OFFSET 21.306858 0.000000 0.000000
									}
								}
							}
						}
					}
					JOINT Spine2_RightShoulder
					{
						OFFSET 0.000000 0.000000 0.000000
						CHANNELS 3 Zrotation Yrotation Xrotation
						JOINT RightShoulder
						{
							OFFSET -5.580300 6.737503 -0.344400
							CHANNELS 3 Zrotation Yrotation Xrotation
							JOINT RightArm
							{
								OFFSET -10.679335 -0.188484 -2.383900
								CHANNELS 3 Zrotation Yrotation Xrotation
								JOINT RightForeArm
								{
									OFFSET -27.503529 0.000000 0.000000
									CHANNELS 3 Zrotation Yrotation Xrotation
									End Site #name: RightHand
									{
										OFFSET -21.306808 0.000000 0.000000
									}
								}
							}
						}
					}
				}
			}
		}
	}
	JOINT Hips_LeftUpLeg
	{
		OFFSET 0.000000 0.000000 0.000000
		CHANNELS 3 Zrotation Yrotation Xrotation
		JOINT LeftUpLeg
		{
			OFFSET 6.857700 -6.739601 0.312100
			CHANNELS 3 Zrotation Yrotation Xrotation
			JOINT LeftLeg
			{
				OFFSET -0.367590 -34.731552 -4.572400
				CHANNELS 3 Zrotation Yrotation Xrotation
				End Site #name: LeftFoot
				{
					OFFSET 0.367590 -34.656704 -6.067400
				}
			}
		}
	}
	JOINT Hips_RightUpLeg
	{
		OFFSET 0.000000 0.000000 0.000000
		CHANNELS 3 Zrotation Yrotation Xrotation
		JOINT RightUpLeg
		{
			OFFSET -6.876100 -6.733299 0.301000
			CHANNELS 3 Zrotation Yrotation Xrotation
			JOINT RightLeg
			{
				OFFSET 0.347353 -34.795158 -4.515900
				CHANNELS 3 Zrotation Yrotation Xrotation
				End Site #name: RightFoot
				{
					OFFSET -0.347353 -34.589367 -6.070300
				}
			}
		}
	}
}
MOTION
Frames: 6
Frame Time: 0.041667
0.056751 0.082889 -1.409538 -4.899797 1.083887 -4.813093 0.000000 0.000000 0.000000 3.662820 1.096442 18.872445 0.363353 0.308224 3.656213 0.000000 0.000000 0.000000 0.625204 0.313896 2.793779 1.412479 -0.638368 10.639494 0.643024 0.254435 2.913295 -5.976521 -1.886613 -0.103676 -61.252128 -3.609661 8.365127 -0.445860 -49.668854 1.456760 0.421620 0.430769 3.480171 4.654663 -4.007325 0.695217 70.113325 14.006657 7.433297 -0.240954 76.895682 -0.024306 -0.000000 0.000000 0.000000 7.684149 9.658148 -74.601902 5.266833 -3.984193 72.563830 0.000000 0.000000 0.000000 -4.275941 -8.529096 -66.223686 0.644073 -0.552737 72.894103 
0.056651 0.086097 -1.447952 -4.891368 1.081253 -4.810568 0.000000 -0.000000 0.000000 3.661974 1.090860 18.876144 0.362956 0.307540 3.659954 0.000000 0.000000 0.000000 0.624847 0.311366 2.796391 1.413047 -0.645955 10.648899 0.643402 0.252653 2.914507 -5.955047 -1.874544 -0.110113 -61.260060 -3.642353 8.382459 -0.449145 -49.827213 1.461170 0.420991 0.429318 3.483097 4.640831 -4.029910 0.691937 70.127149 13.970387 7.395003 -0.248488 77.051061 -0.032851 -0.000000 0.000000 0.000000 7.688849 9.658358 -74.606744 5.274419 -3.982809 72.568914 0.000000 0.000000 0.000000 -4.275041 -8.530878 -66.207021 0.642110 -0.556085 72.885708 
0.057813 0.089000 -1.485999 -4.882720 1.077588 -4.807794 0.000000 -0.000000 0.000000 3.664522 1.088619 18.877922 0.363501 0.306910 3.663205 0.000000 0.000000 0.000000 0.625719 0.309382 2.800734 1.416540 -0.650073 10.653715 0.644126 0.251040 2.915963 -5.948616 -1.882275 -0.113040 -61.254534 -3.685693 8.386232 -0.450036 -49.904632 1.461958 0.422388 0.427389 3.486555 4.638918 -4.039732 0.690554 70.166389 13.983840 7.389169 -0.249718 76.861763 -0.033979 -0.000000 0.000000 0.000000 7.691097 9.659656 -74.601077 5.285964 -3.980616 72.562951 0.000000 0.000000 0.000000 -4.273022 -8.532671 -66.196831 0.641504 -0.558948 72.881681 
0.060205 0.091507 -1.523710 -4.873694 1.074645 -4.804657 0.000000 -0.000000 0.000000 3.668690 1.088760 18.877791 0.365719 0.306549 3.666547 0.000000 0.000000 0.000000 0.627994 0.307989 2.805246 1.419242 -0.650107 10.651841 0.646126 0.248935 2.918707 -5.950138 -1.901969 -0.110460 -61.234369 -3.694980 8.350686 -0.447840 -49.858634 1.458654 0.424641 0.426526 3.491970 4.648520 -4.044485 0.690311 70.232408 14.051364 7.404926 -0.242498 76.317443 -0.026288 -0.000000 0.000000 0.000000 7.692420 9.660852 -74.597048 5.297162 -3.976775 72.559200 0.000000 0.000000 0.000000 -4.271035 -8.534765 -66.182526 0.642222 -0.561777 72.877312 
0.063810 0.093804 -1.561099 -4.866731 1.070537 -4.799806 0.000000 -0.000000 0.000000 3.674316 1.091446 18.879498 0.369319 0.305753 3.669781 0.000000 0.000000 0.000000 0.630602 0.306717 2.810986 1.424791 -0.648940 10.651218 0.649032 0.248406 2.923082 -5.964710 -1.938128 -0.106265 -61.218557 -3.728825 8.300650 -0.443422 -49.735074 1.453569 0.428422 0.425650 3.498406 4.677429 -4.044529 0.689649 70.325040 14.149966 7.467617 -0.232949 75.430533 -0.014517 -0.000000 0.000000 0.000000 7.693346 9.661842 -74.593933 5.309449 -3.974742 72.554739 0.000000 0.000000 0.000000 -4.269704 -8.532321 -66.162083 0.640942 -0.561816 72.869399 
0.068466 0.095869 -1.598269 -4.860332 1.068460 -4.793499 0.000000 -0.000000 0.000000 3.681683 1.094789 18.881583 0.373779 0.305552 3.673497 0.000000 0.000000 0.000000 0.634111 0.305726 2.818172 1.430276 -0.645183 10.647212 0.652702 0.248406 2.928437 -5.975172 -1.983071 -0.098787 -61.195015 -3.761622 8.230596 -0.437551 -49.513281 1.447287 0.433328 0.424723 3.506242 4.718245 -4.041235 0.689847 70.433135 14.288335 7.573091 -0.217260 74.349841 0.007996 -0.000000 0.000000 0.000000 7.696432 9.663528 -74.593412 5.320534 -3.971806 72.553963 0.000000 0.000000 0.000000 -4.270242 -8.534562 -66.143554 0.637190 -0.564452 72.857274 
